<svg xmlns="http://www.w3.org/2000/svg" viewBox="0 0 800 600" role="img">
<defs>
  <linearGradient id="sky" x1="0" y1="0" x2="0" y2="1">
    <stop offset="0" stop-color="#1d1f3a"/><stop offset="0.62" stop-color="#54395a"/><stop offset="1" stop-color="#c08043"/>
  </linearGradient>
  <linearGradient id="ground" x1="0" y1="0" x2="0" y2="1">
    <stop offset="0" stop-color="#0d1526"/><stop offset="1" stop-color="#04070f"/>
  </linearGradient>
  <linearGradient id="wg" x1="0" y1="0" x2="0" y2="1">
    <stop offset="0" stop-color="#ffe3a3"/><stop offset="1" stop-color="#d2974a"/>
  </linearGradient>
  <linearGradient id="pool" x1="0" y1="0" x2="0" y2="1">
    <stop offset="0" stop-color="#1d3a5f"/><stop offset="1" stop-color="#0b1b32"/>
  </linearGradient>
  <filter id="glow" x="-80%" y="-80%" width="260%" height="260%">
    <feGaussianBlur stdDeviation="6" result="b"/>
    <feMerge><feMergeNode in="b"/><feMergeNode in="SourceGraphic"/></feMerge>
  </filter>
</defs>
<rect width="800" height="600" fill="url(#sky)"/>
<circle cx="203" cy="130" r="0.9" fill="#e8ecf7" opacity="0.40"/><circle cx="33" cy="4" r="0.8" fill="#e8ecf7" opacity="0.63"/><circle cx="726" cy="65" r="1.3" fill="#e8ecf7" opacity="0.33"/><circle cx="439" cy="193" r="1.2" fill="#e8ecf7" opacity="0.73"/><circle cx="602" cy="3" r="0.7" fill="#e8ecf7" opacity="0.44"/><circle cx="251" cy="125" r="0.9" fill="#e8ecf7" opacity="0.50"/><circle cx="330" cy="170" r="1.2" fill="#e8ecf7" opacity="0.69"/><circle cx="565" cy="153" r="1.0" fill="#e8ecf7" opacity="0.29"/><circle cx="546" cy="78" r="0.9" fill="#e8ecf7" opacity="0.24"/><circle cx="9" cy="285" r="0.9" fill="#e8ecf7" opacity="0.37"/><circle cx="736" cy="2" r="1.0" fill="#e8ecf7" opacity="0.43"/><circle cx="690" cy="35" r="1.0" fill="#e8ecf7" opacity="0.51"/><circle cx="796" cy="233" r="1.7" fill="#e8ecf7" opacity="0.59"/><circle cx="176" cy="117" r="1.2" fill="#e8ecf7" opacity="0.49"/><circle cx="653" cy="130" r="0.7" fill="#e8ecf7" opacity="0.29"/><circle cx="739" cy="159" r="0.7" fill="#e8ecf7" opacity="0.53"/><circle cx="321" cy="160" r="1.4" fill="#e8ecf7" opacity="0.39"/><circle cx="643" cy="287" r="1.5" fill="#e8ecf7" opacity="0.51"/><circle cx="421" cy="262" r="1.3" fill="#e8ecf7" opacity="0.73"/><circle cx="281" cy="182" r="0.9" fill="#e8ecf7" opacity="0.20"/><circle cx="744" cy="38" r="0.8" fill="#e8ecf7" opacity="0.40"/><circle cx="768" cy="266" r="0.8" fill="#e8ecf7" opacity="0.47"/><circle cx="62" cy="200" r="1.4" fill="#e8ecf7" opacity="0.71"/><circle cx="578" cy="65" r="0.9" fill="#e8ecf7" opacity="0.54"/><circle cx="397" cy="42" r="1.2" fill="#e8ecf7" opacity="0.35"/><circle cx="631" cy="162" r="1.1" fill="#e8ecf7" opacity="0.67"/><circle cx="531" cy="225" r="1.5" fill="#e8ecf7" opacity="0.33"/><circle cx="237" cy="158" r="1.5" fill="#e8ecf7" opacity="0.29"/><circle cx="371" cy="145" r="0.9" fill="#e8ecf7" opacity="0.57"/><circle cx="681" cy="228" r="1.4" fill="#e8ecf7" opacity="0.50"/><circle cx="164" cy="25" r="1.1" fill="#e8ecf7" opacity="0.22"/><circle cx="462" cy="133" r="1.1" fill="#e8ecf7" opacity="0.29"/><circle cx="160" cy="208" r="1.1" fill="#e8ecf7" opacity="0.68"/><circle cx="585" cy="85" r="0.7" fill="#e8ecf7" opacity="0.53"/><circle cx="728" cy="237" r="0.9" fill="#e8ecf7" opacity="0.25"/><circle cx="698" cy="235" r="0.7" fill="#e8ecf7" opacity="0.55"/><circle cx="518" cy="71" r="1.3" fill="#e8ecf7" opacity="0.69"/><circle cx="482" cy="262" r="1.5" fill="#e8ecf7" opacity="0.21"/><circle cx="675" cy="217" r="1.4" fill="#e8ecf7" opacity="0.63"/><circle cx="687" cy="211" r="1.5" fill="#e8ecf7" opacity="0.73"/><circle cx="705" cy="223" r="1.6" fill="#e8ecf7" opacity="0.27"/><circle cx="627" cy="255" r="1.1" fill="#e8ecf7" opacity="0.49"/>

  <path d="M0 320 Q140 228 300 298 Q430 230 560 290 Q680 238 800 300 L800 480 L0 480 Z" fill="#0c1430" opacity="0.92"/>
  <path d="M0 362 Q180 292 340 350 Q530 292 800 360 L800 480 L0 480 Z" fill="#0a1022"/><rect x="260" y="258" width="220" height="212" fill="#101a33" stroke="#c9a45c" stroke-width="2"/><rect x="248" y="249" width="244" height="9" fill="#1a2848" stroke="#c9a45c" stroke-width="1.6"/><g stroke="#c9a45c" stroke-width="2">
       <line x1="270" y1="240" x2="270" y2="252"/><line x1="310" y1="240" x2="310" y2="252"/>
       <line x1="350" y1="240" x2="350" y2="252"/><line x1="390" y1="240" x2="390" y2="252"/>
       <line x1="262" y1="240" x2="398" y2="240"/>
     </g><rect x="282" y="286" width="42" height="32" fill="url(#wg)" opacity="0.92"/><rect x="340" y="286" width="42" height="32" fill="url(#wg)" opacity="0.92"/><rect x="282" y="334" width="42" height="32" fill="url(#wg)" opacity="0.92"/><rect x="340" y="334" width="42" height="32" fill="url(#wg)" opacity="0.92"/><rect x="282" y="380" width="42" height="32" fill="url(#wg)" opacity="0.92"/><rect x="340" y="380" width="42" height="32" fill="url(#wg)" opacity="0.92"/><rect x="420" y="422" width="26" height="48" fill="url(#wg)" opacity="1"/><line x1="150" y1="470" x2="150" y2="419.4" stroke="#0d1a32" stroke-width="5.5"/>
   <circle cx="150" cy="399.6" r="29.700000000000003" fill="#0d1a32"/>
   <circle cx="129.1" cy="417.2" r="19.8" fill="#0b1730"/>
   <circle cx="170.9" cy="413.9" r="20.900000000000002" fill="#0b1730"/><path d="M560 470 L560 464 Q 548.3 432.2 560 383.6 Q 571.7 432.2 560 464 Z" fill="#0c1830"/><line x1="600" y1="470" x2="600" y2="436" stroke="#c9a45c" stroke-width="1.6"/>
   <circle cx="600" cy="432" r="4" fill="#ffe3a3" filter="url(#glow)"/>
<rect y="470" width="800" height="130" fill="url(#ground)"/>
   <line x1="0" y1="470" x2="800" y2="470" stroke="#c9a45c" stroke-width="1.4" opacity="0.55"/>
</svg>